{"title":"Kylie Minogue - Sexercize [Music Video] 1080p [Sbyky]","uid":10170365,"size":56182103,"categoryP":"video","categoryS":"music_videos","magnet":"?xt=urn:btih:af8467bfcdd7c0d82d1a5ff9d149e728d01e1c94&amp;dn=Kylie+Minogue+-+Sexercize+%5BMusic+Video%5D+1080p+%5BSbyky%5D&amp;tr=udp%3A%2F%2Ftracker.openbittorrent.com%3A80&amp;tr=udp%3A%2F%2Fopen.demonii.com%3A1337&amp;tr=udp%3A%2F%2Ftracker.coppersurfer.tk%3A6969&amp;tr=udp%3A%2F%2Fexodus.desync.com%3A6969","seeders":1,"leechers":0,"uploader":"Sbyky","files":1,"time":1400397810,"description":"\n\nGeneral\nComplete name                            : Kylie Minogue - Sexercize [Music Video] 1080p [Sbyky].MP4\nFormat                                   : MPEG-4\nFormat profile                           : Base Media\nCodec ID                                 : isom\nFile size                                : 53.6 MiB\nDuration                                 : 2mn 57s\nOverall bit rate mode                    : Variable\nOverall bit rate                         : 2 530 Kbps\nEncoded date                             : UTC 2014-03-17 23:34:00\nTagged date                              : UTC 2014-03-17 23:34:00\n\nVideo\nID                                       : 1\nFormat                                   : AVC\nFormat/Info                              : Advanced Video Codec\nFormat profile                           : &lt;a class=&quot;__cf_email__&quot; href=&quot;/cdn-cgi/l/email-protection&quot; data-cfemail=&quot;6129080609212d554f51&quot;&gt;[email&amp;#160;protected]&lt;/a&gt;&lt;script data-cfhash='f9e31' type=&quot;text/javascript&quot;&gt;\n/* &lt;![CDATA[ */!function(){try{var t=&quot;currentScript&quot;in document?document.currentScript:function(){for(var t=document.getElementsByTagName(&quot;script&quot;),e=t.length;e--;)if(t[e].getAttribute(&quot;data-cfhash&quot;))return t[e]}();if(t&amp;&amp;t.previousSibling){var e,r,n,i,c=t.previousSibling,a=c.getAttribute(&quot;data-cfemail&quot;);if(a){for(e=&quot;&quot;,r=parseInt(a.substr(0,2),16),n=2;a.length-n;n+=2)i=parseInt(a.substr(n,2),16)^r,e+=String.fromCharCode(i);e=document.createTextNode(e),c.parentNode.replaceChild(e,c)}t.parentNode.removeChild(t);}}catch(u){}}()/* ]]&gt; */&lt;/script&gt;\nFormat settings, CABAC                   : Yes\nFormat settings, ReFrames                : 2 frames\nCodec ID                                 : avc1\nCodec ID/Info                            : Advanced Video Coding\nDuration                                 : 2mn 57s\nBit rate                                 : 2 402 Kbps\nWidth                                    : 1 920 pixels\nHeight                                   : 1 080 pixels\nDisplay aspect ratio                     : 16:9\nFrame rate mode                          : Constant\nFrame rate                               : 25.000 fps\nColor space                              : YUV\nChroma subsampling                       : 4:2:0\nBit depth                                : 8 bits\nScan type                                : Progressive\nBits/(Pixel*Frame)                       : 0.046\nStream size                              : 50.9 MiB (95%)\nEncoded date                             : UTC 2014-03-17 23:34:00\nTagged date                              : UTC 2014-03-17 23:34:00\n\nAudio\nID                                       : 2\nFormat                                   : AAC\nFormat/Info                              : Advanced Audio Codec\nFormat profile                           : LC\nCodec ID                                 : 40\nDuration                                 : 2mn 57s\nBit rate mode                            : Variable\nBit rate                                 : 126 Kbps\nChannel(s)                               : 2 channels\nChannel positions                        : Front: L R\nSampling rate                            : 44.1 KHz\nCompression mode                         : Lossy\nStream size                              : 2.66 MiB (5%)\nEncoded date                             : UTC 2014-03-17 23:33:42\nTagged date                              : UTC 2014-03-17 23:33:42\n\nShared By Sbyky\n","torrent":{"xt":"urn:btih:af8467bfcdd7c0d82d1a5ff9d149e728d01e1c94","amp;dn":"Kylie+Minogue+-+Sexercize+%5BMusic+Video%5D+1080p+%5BSbyky%5D","amp;tr":["udp%3A%2F%2Ftracker.openbittorrent.com%3A80","udp%3A%2F%2Fopen.demonii.com%3A1337","udp%3A%2F%2Ftracker.coppersurfer.tk%3A6969","udp%3A%2F%2Fexodus.desync.com%3A6969"],"infoHash":"af8467bfcdd7c0d82d1a5ff9d149e728d01e1c94","infoHashBuffer":{"type":"Buffer","data":[175,132,103,191,205,215,192,216,45,26,95,249,209,73,231,40,208,30,28,148]},"announce":[],"urlList":[]}}